<svg width="51" height="53" viewBox="0 0 51 53" fill="none" xmlns="http://www.w3.org/2000/svg">
<path d="M49.1536 21.1805L28.3203 1.34108C28.3101 1.33211 28.3006 1.32245 28.2917 1.31217C27.5246 0.608101 26.5251 0.217957 25.4883 0.217957C24.4515 0.217957 23.4519 0.608101 22.6849 1.31217L22.6562 1.34108L1.84635 21.1805C1.42187 21.5744 1.08303 22.053 0.85128 22.586C0.619529 23.119 0.499912 23.6947 0.5 24.2768V48.5766C0.5 49.6919 0.938987 50.7616 1.72039 51.5503C2.50179 52.339 3.5616 52.7821 4.66667 52.7821H17.1667C18.2717 52.7821 19.3315 52.339 20.1129 51.5503C20.8943 50.7616 21.3333 49.6919 21.3333 48.5766V35.9601H29.6667V48.5766C29.6667 49.6919 30.1057 50.7616 30.8871 51.5503C31.6685 52.339 32.7283 52.7821 33.8333 52.7821H46.3333C47.4384 52.7821 48.4982 52.339 49.2796 51.5503C50.061 50.7616 50.5 49.6919 50.5 48.5766V24.2768C50.5001 23.6947 50.3805 23.119 50.1487 22.586C49.917 22.053 49.5781 21.5744 49.1536 21.1805ZM46.3333 48.5766H33.8333V35.9601C33.8333 34.8447 33.3943 33.7751 32.6129 32.9864C31.8315 32.1977 30.7717 31.7546 29.6667 31.7546H21.3333C20.2283 31.7546 19.1685 32.1977 18.3871 32.9864C17.6057 33.7751 17.1667 34.8447 17.1667 35.9601V48.5766H4.66667V24.2768L4.69531 24.2505L25.5 4.41897L46.3073 24.2452L46.3359 24.2715L46.3333 48.5766Z" fill="black"/>
</svg>
