<svg width="51" height="49" viewBox="0 0 51 49" fill="none" xmlns="http://www.w3.org/2000/svg">
<path d="M50.2165 45.6148C46.559 39.2916 40.9226 34.7575 34.3448 32.6082C37.5985 30.6712 40.1264 27.7198 41.5403 24.2071C42.9542 20.6944 43.176 16.8147 42.1716 13.1638C41.1671 9.51292 38.992 6.29267 35.9802 3.9976C32.9684 1.70254 29.2866 0.459564 25.5 0.459564C21.7134 0.459564 18.0316 1.70254 15.0198 3.9976C12.008 6.29267 9.8329 9.51292 8.82845 13.1638C7.82399 16.8147 8.04576 20.6944 9.45968 24.2071C10.8736 27.7198 13.4015 30.6712 16.6552 32.6082C10.0774 34.7551 4.441 39.2892 0.783468 45.6148C0.64934 45.8335 0.560374 46.0769 0.521818 46.3305C0.483263 46.5842 0.4959 46.843 0.558983 47.0917C0.622066 47.3403 0.734318 47.5739 0.889115 47.7785C1.04391 47.983 1.23812 48.1546 1.46028 48.2829C1.68244 48.4112 1.92805 48.4937 2.18262 48.5256C2.43719 48.5575 2.69556 48.538 2.94249 48.4684C3.18943 48.3988 3.41992 48.2804 3.62036 48.1203C3.82081 47.9602 3.98716 47.7615 4.10958 47.5361C8.63406 39.7167 16.6312 35.0481 25.5 35.0481C34.3688 35.0481 42.3659 39.7167 46.8904 47.5361C47.0128 47.7615 47.1792 47.9602 47.3796 48.1203C47.5801 48.2804 47.8106 48.3988 48.0575 48.4684C48.3044 48.538 48.5628 48.5575 48.8174 48.5256C49.0719 48.4937 49.3176 48.4112 49.5397 48.2829C49.7619 48.1546 49.9561 47.983 50.1109 47.7785C50.2657 47.5739 50.3779 47.3403 50.441 47.0917C50.5041 46.843 50.5167 46.5842 50.4782 46.3305C50.4396 46.0769 50.3507 45.8335 50.2165 45.6148ZM12.0514 17.7571C12.0514 15.0972 12.8402 12.4971 14.3179 10.2855C15.7957 8.07388 17.8961 6.35014 20.3535 5.33225C22.8109 4.31436 25.5149 4.04804 28.1237 4.56695C30.7325 5.08587 33.1287 6.36672 35.0096 8.24753C36.8904 10.1283 38.1712 12.5247 38.6901 15.1334C39.2091 17.7422 38.9427 20.4462 37.9248 22.9036C36.907 25.361 35.1832 27.4614 32.9716 28.9392C30.76 30.4169 28.1599 31.2057 25.5 31.2057C21.9344 31.2018 18.5159 29.7837 15.9946 27.2625C13.4734 24.7412 12.0553 21.3227 12.0514 17.7571Z" fill="black"/>
</svg>
