<svg width="51" height="51" viewBox="0 0 51 51" fill="none" xmlns="http://www.w3.org/2000/svg">
<path d="M25.4964 14.0303C23.2286 14.0303 21.0118 14.7028 19.1262 15.9627C17.2406 17.2226 15.7709 19.0134 14.9031 21.1085C14.0353 23.2037 13.8082 25.5091 14.2506 27.7333C14.693 29.9576 15.7851 32.0006 17.3886 33.6042C18.9922 35.2078 21.0353 36.2998 23.2595 36.7422C25.4837 37.1847 27.7892 36.9576 29.8843 36.0897C31.9795 35.2219 33.7702 33.7523 35.0302 31.8667C36.2901 29.9811 36.9625 27.7642 36.9625 25.4964C36.9594 22.4564 35.7503 19.5418 33.6007 17.3921C31.4511 15.2425 28.5365 14.0335 25.4964 14.0303ZM25.4964 33.1405C23.9846 33.1405 22.5067 32.6922 21.2496 31.8522C19.9925 31.0123 19.0128 29.8185 18.4342 28.4217C17.8556 27.0249 17.7043 25.4879 17.9992 24.0051C18.2942 22.5223 19.0222 21.1603 20.0912 20.0912C21.1603 19.0222 22.5223 18.2942 24.0051 17.9992C25.4879 17.7043 27.0249 17.8556 28.4217 18.4342C29.8185 19.0128 31.0123 19.9925 31.8522 21.2496C32.6922 22.5067 33.1405 23.9846 33.1405 25.4964C33.1405 27.5238 32.3351 29.4681 30.9016 30.9016C29.4681 32.3351 27.5238 33.1405 25.4964 33.1405ZM46.5177 26.0124C46.5272 25.6684 46.5272 25.3244 46.5177 24.9804L50.0817 20.5278C50.2686 20.294 50.3979 20.0196 50.4593 19.7266C50.5208 19.4337 50.5125 19.1304 50.4352 18.8413C49.851 16.645 48.977 14.5364 47.8363 12.5707C47.6869 12.3135 47.4795 12.0947 47.2307 11.9317C46.9819 11.7687 46.6985 11.6661 46.403 11.632L40.7368 11.0013C40.5011 10.7529 40.2622 10.514 40.0202 10.2847L39.3513 4.60418C39.3169 4.30848 39.2139 4.0249 39.0505 3.77606C38.8871 3.52722 38.6678 3.32 38.4101 3.17091C36.4438 2.03229 34.3353 1.15916 32.1396 0.57431C31.8503 0.497384 31.5469 0.489517 31.254 0.551341C30.961 0.613165 30.6867 0.742951 30.4531 0.930238L26.0124 4.47518C25.6684 4.47518 25.3244 4.47518 24.9804 4.47518L20.5278 0.918294C20.294 0.731416 20.0196 0.602063 19.7266 0.540655C19.4337 0.479248 19.1304 0.487502 18.8413 0.564755C16.6454 1.15007 14.5368 2.02402 12.5707 3.16374C12.3135 3.3131 12.0947 3.52045 11.9317 3.76927C11.7687 4.0181 11.6661 4.30153 11.632 4.59701L11.0013 10.2727C10.7529 10.51 10.514 10.7489 10.2847 10.9894L4.60418 11.6415C4.30848 11.6759 4.0249 11.7789 3.77606 11.9423C3.52722 12.1057 3.32 12.325 3.17091 12.5827C2.03229 14.549 1.15916 16.6576 0.57431 18.8532C0.497384 19.1426 0.489517 19.4459 0.551341 19.7389C0.613165 20.0318 0.742951 20.3061 0.930238 20.5397L4.47518 24.9804C4.47518 25.3244 4.47518 25.6684 4.47518 26.0124L0.918294 30.4651C0.731416 30.6989 0.602063 30.9733 0.540655 31.2662C0.479248 31.5591 0.487502 31.8624 0.564755 32.1515C1.14902 34.3478 2.02303 36.4565 3.16374 38.4221C3.3131 38.6793 3.52045 38.8981 3.76927 39.0611C4.0181 39.2241 4.30153 39.3267 4.59701 39.3609L10.2632 39.9915C10.5005 40.2399 10.7394 40.4788 10.9798 40.7081L11.6415 46.3887C11.6759 46.6844 11.7789 46.9679 11.9423 47.2168C12.1057 47.4656 12.325 47.6728 12.5827 47.8219C14.549 48.9605 16.6576 49.8337 18.8532 50.4185C19.1426 50.4954 19.4459 50.5033 19.7389 50.4415C20.0318 50.3797 20.3061 50.2499 20.5397 50.0626L24.9804 46.5177C25.3244 46.5272 25.6684 46.5272 26.0124 46.5177L30.4651 50.0817C30.6989 50.2686 30.9733 50.3979 31.2662 50.4593C31.5591 50.5208 31.8624 50.5125 32.1515 50.4352C34.3478 49.851 36.4565 48.977 38.4221 47.8363C38.6793 47.6869 38.8981 47.4795 39.0611 47.2307C39.2241 46.9819 39.3267 46.6985 39.3609 46.403L39.9915 40.7368C40.2399 40.5011 40.4788 40.2622 40.7081 40.0202L46.3887 39.3513C46.6844 39.3169 46.9679 39.2139 47.2168 39.0505C47.4656 38.8871 47.6728 38.6678 47.8219 38.4101C48.9605 36.4438 49.8337 34.3353 50.4185 32.1396C50.4954 31.8503 50.5033 31.5469 50.4415 31.254C50.3797 30.961 50.2499 30.6867 50.0626 30.4531L46.5177 26.0124ZM42.6717 24.4597C42.7123 25.1502 42.7123 25.8426 42.6717 26.5331C42.6433 27.0059 42.7914 27.4724 43.0874 27.8422L46.477 32.0775C46.0881 33.3136 45.5901 34.5127 44.9888 35.6607L39.5902 36.2722C39.1201 36.3244 38.686 36.5491 38.3719 36.9028C37.9121 37.42 37.4224 37.9097 36.9052 38.3695C36.5515 38.6836 36.3268 39.1177 36.2746 39.5878L35.675 44.9817C34.5272 45.5832 33.328 46.0812 32.0918 46.4699L27.8541 43.0802C27.515 42.8093 27.0938 42.6618 26.6597 42.6622H26.5451C25.8545 42.7028 25.1622 42.7028 24.4716 42.6622C23.9988 42.6337 23.5323 42.7818 23.1626 43.0778L18.9153 46.4699C17.6792 46.0809 16.4801 45.5829 15.3322 44.9817L14.7206 39.5902C14.6685 39.1201 14.4438 38.686 14.09 38.3719C13.5729 37.9121 13.0831 37.4224 12.6233 36.9052C12.3093 36.5515 11.8752 36.3268 11.405 36.2746L6.01117 35.6726C5.40965 34.5248 4.91161 33.3257 4.52296 32.0894L7.91263 27.8517C8.20861 27.482 8.35674 27.0155 8.32828 26.5427C8.28767 25.8521 8.28767 25.1598 8.32828 24.4692C8.35674 23.9965 8.20861 23.53 7.91263 23.1602L4.52296 18.9153C4.91191 17.6792 5.40994 16.4801 6.01117 15.3322L11.4026 14.7206C11.8728 14.6685 12.3069 14.4438 12.6209 14.09C13.0807 13.5729 13.5705 13.0831 14.0876 12.6233C14.4428 12.309 14.6684 11.874 14.7206 11.4026L15.3202 6.01117C16.468 5.40965 17.6672 4.91161 18.9034 4.52296L23.1411 7.91263C23.5108 8.20861 23.9774 8.35674 24.4501 8.32828C25.1407 8.28767 25.833 8.28767 26.5236 8.32828C26.9964 8.35674 27.4629 8.20861 27.8326 7.91263L32.0775 4.52296C33.3136 4.91191 34.5127 5.40994 35.6607 6.01117L36.2722 11.4026C36.3244 11.8728 36.5491 12.3069 36.9028 12.6209C37.42 13.0807 37.9097 13.5705 38.3695 14.0876C38.6836 14.4414 39.1177 14.6661 39.5878 14.7183L44.9817 15.3178C45.5832 16.4657 46.0812 17.6648 46.4699 18.901L43.0802 23.1387C42.7814 23.5116 42.6331 23.9829 42.6646 24.4597H42.6717Z" fill="black"/>
</svg>
